<?xml version="1.0" encoding="UTF-8"?>
<svg version="1.1" xmlns="http://www.w3.org/2000/svg" width="1024" height="1024">
<path d="M0 0 C337.92 0 675.84 0 1024 0 C1024 337.92 1024 675.84 1024 1024 C686.08 1024 348.16 1024 0 1024 C0 686.08 0 348.16 0 0 Z " fill="#211E24" transform="translate(0,0)"/>
<path d="M0 0 C2.88720324 1.38289459 4.81882025 2.61226265 6.953125 5.01171875 C7.49066406 5.60533203 8.02820313 6.19894531 8.58203125 6.81054688 C9.13246094 7.42994141 9.68289062 8.04933594 10.25 8.6875 C13.53158081 12.3684057 16.79963867 15.90082308 20.57128906 19.0871582 C25.74219661 23.57342823 30.5270061 28.42096157 35.34375 33.28125 C36.32176419 34.26368378 37.30008251 35.24581488 38.27868652 36.22766113 C41.87498984 39.83719318 45.46576596 43.45220706 49.05670166 47.06707764 C52.10355579 50.1338075 55.15255126 53.19837914 58.20429993 56.26023865 C59.61758629 57.67991157 61.02777111 59.10266999 62.43786621 60.5255127 C67.45997437 65.56659054 72.58425419 70.38588267 78 75 C84.03480035 80.32329973 89.9071177 85.65435952 95.0859375 91.828125 C99.02523415 96.29802079 103.34418295 100.42008672 107.58642578 104.6003418 C108.96310219 105.96346543 110.32552456 107.34093764 111.6875 108.71875 C114.01591425 111.09253608 114.01591425 111.09253608 116.875 113.3125 C119.21416578 115.2215421 121.12566544 117.24786315 123.0625 119.5625 C125.98683351 122.99341423 129.15692794 126.02770063 132.50390625 129.03515625 C141.95311926 137.64698229 150.87262959 146.8020623 159.875 155.875 C163.32777704 159.35451315 166.78396342 162.83058897 170.2421875 166.3046875 C171.01835419 167.08915253 171.79452087 167.87361755 172.59420776 168.68185425 C176.44457743 172.54945034 180.35612462 176.22563331 184.53768921 179.73156738 C186.34169071 181.29638819 187.8794317 182.99151502 189.3984375 184.83203125 C193.2489856 189.35228663 197.40400762 193.51498191 201.625 197.6875 C202.73101562 198.78674805 202.73101562 198.78674805 203.859375 199.90820312 C205.2797264 201.31964551 206.70098737 202.73017335 208.12329102 204.13964844 C211.15730746 207.14722036 214.17926159 210.16600011 217.17578125 213.2109375 C220.62443638 216.70372532 224.07523263 220.12803677 227.8125 223.3125 C233.02881601 227.78512437 237.79512082 232.71510683 242.61816406 237.60229492 C243.88532469 238.88400775 245.15913625 240.15913625 246.43359375 241.43359375 C248.39665089 243.39665089 250.35266286 245.36586752 252.3046875 247.33984375 C253.49475143 248.53910243 254.68485629 249.73832049 255.875 250.9375 C256.46152344 251.53240234 257.04804688 252.12730469 257.65234375 252.74023438 C261.1342039 256.24122563 264.72408746 259.50811279 268.49951172 262.6887207 C270.23398932 264.20448367 271.68793051 265.82661019 273.125 267.625 C276.83522156 272.0098073 281.01286024 275.79723717 285.29345703 279.61181641 C287.9564031 282.00838763 290.41775315 284.40693962 292.6875 287.18359375 C294.52135856 289.41706 296.15414954 291.13892392 298.375 292.9375 C306.29412208 299.67556754 313.42052062 307.35462883 320.71484375 314.75390625 C322.70546868 316.7105034 324.73526811 318.52347105 326.875 320.3125 C329.57382115 322.64512423 331.95909931 325.01768186 334.25 327.75 C337.51742648 331.59618588 341.12564915 334.91867382 344.87817383 338.28662109 C353.43894461 346.03465214 361.45246947 354.37624386 369.55859375 362.59375 C372.05075224 365.05002141 374.59822545 367.43324992 377.16601562 369.80981445 C384.4039103 376.51641303 391.49639532 383.3617029 398.5 390.3125 C399.34320801 391.14281738 400.18641602 391.97313477 401.05517578 392.82861328 C401.83103027 393.60317871 402.60688477 394.37774414 403.40625 395.17578125 C404.10041016 395.86583252 404.79457031 396.55588379 405.50976562 397.2668457 C407 399 407 399 407 401 C407.59039063 401.25265625 408.18078125 401.5053125 408.7890625 401.765625 C411.25966701 403.1449731 412.57950557 404.57517576 414.375 406.75 C416.52301737 409.33576498 418.74051363 411.77354724 421.12353516 414.14160156 C421.66257477 414.67803284 422.20161438 415.21446411 422.75698853 415.76715088 C423.16718231 416.17399109 423.5773761 416.5808313 424 417 C424.02341777 396.6411509 424.04102265 376.28230455 424.05181217 355.92344475 C424.05695632 346.46930362 424.06396298 337.01517089 424.07543945 327.56103516 C424.08544397 319.31550532 424.09186709 311.06998158 424.09408849 302.82444584 C424.09538585 298.46334843 424.09840941 294.10226841 424.10573006 289.74117661 C424.11258151 285.62575654 424.11459864 281.51036083 424.11310768 277.39493561 C424.11337995 275.8946863 424.11533042 274.39443607 424.11920547 272.89419174 C424.13937189 264.67468844 423.87611045 256.54303347 423.22626591 248.34661674 C422.86052156 242.93702505 422.86875716 237.53945472 422.88647461 232.11962891 C422.88632858 230.91789536 422.88618256 229.7161618 422.8860321 228.47801208 C422.8866028 225.23305891 422.89156193 221.98815084 422.89860606 218.7432065 C422.90492603 215.33331282 422.90545015 211.92341792 422.90663147 208.51351929 C422.90971961 202.07889598 422.9178985 195.64428998 422.92798096 189.20967424 C422.93922099 181.87454597 422.94467228 174.5394168 422.94967639 167.20428205 C422.96008368 152.13617844 422.97763354 137.06809097 423 122 C430.36321165 128.23350059 430.36321165 128.23350059 433.63696289 131.53930664 C434.25773209 132.16337906 434.87850128 132.78745148 435.51808167 133.43043518 C436.16309128 134.08374313 436.80810089 134.73705109 437.47265625 135.41015625 C438.5018644 136.44504433 438.5018644 136.44504433 439.55186462 137.50083923 C441.72453989 139.68562947 443.89392637 141.87363901 446.0625 144.0625 C448.92544237 146.95216019 451.79176144 149.83840942 454.66015625 152.72265625 C455.30719009 153.37798843 455.95422394 154.03332062 456.62086487 154.70851135 C459.37438639 157.47675963 462.12462203 160.16667607 465.14624023 162.64233398 C467.95292164 164.96110568 470.45757415 167.39603283 473 170 C474.14056073 171.1432918 475.28261058 172.28509911 476.42578125 173.42578125 C505 202 505 202 507.07720947 204.31822205 C511.07584932 207.98713506 515.55765877 210.53644611 520.19042969 213.33422852 C535.19974508 222.69942494 549.19199608 233.20667365 562.75 244.5625 C563.37046455 245.08074121 563.99092911 245.59898241 564.63019562 246.13292789 C597.75026052 273.9866088 616.76164414 304.07845395 620.77757645 347.70257473 C623.19404035 377.53826608 622.87836959 407.48221395 622 437.375 C621.98034896 438.05749968 621.96069791 438.73999937 621.94045138 439.44318086 C621.2059481 464.88277768 620.18376688 490.31375432 618.41461182 515.70429993 C616.4975094 543.30295085 615.84984116 570.44380275 616.73759586 598.09903795 C617.05139269 608.01459088 617.15362013 617.92653122 617.20532227 627.84643555 C617.21556279 629.51446122 617.22591007 631.18248625 617.23636436 632.8505106 C617.2617149 637.06883309 617.28299621 641.28716693 617.30331039 645.50551629 C617.32623397 650.11129117 617.35323128 654.717043 617.3795166 659.32279968 C617.42895438 668.11165485 617.4742431 676.90052618 617.51765215 685.68941301 C617.5525445 692.74349123 617.58915366 699.79755886 617.62667847 706.85162354 C617.95568236 768.90140712 618.15331035 830.94928657 618 893 C616 891.625 616 891.625 614 890 C614 889.34 614 888.68 614 888 C613.45655945 887.78220383 612.9131189 887.56440765 612.35321045 887.3400116 C609.20695721 885.5484099 606.8659277 883.11990292 604.34863281 880.55981445 C603.79519196 880.00505936 603.2417511 879.45030426 602.67153931 878.8787384 C600.84409375 877.04480638 599.02373077 875.20400132 597.203125 873.36328125 C595.92814444 872.0820253 594.65264403 870.80128646 593.37664795 869.52104187 C590.01518738 866.14627656 586.65932836 862.76600031 583.30505371 859.38409424 C577.95219116 853.98814806 572.59273603 848.59877288 567.22982025 843.21282005 C565.36636041 841.33922463 563.50640551 839.46220271 561.64678955 837.58479309 C556.45417196 832.35594939 551.29764947 827.16901697 545.62322998 822.45426941 C543.73874962 820.76594294 542.13382123 818.9298701 540.5 817 C538.30721065 814.41855701 536.10966073 812.14742149 533.51171875 809.9765625 C527.82599691 805.06943778 522.59698582 799.70411972 517.3125 794.375 C516.28344047 793.34090959 515.25414493 792.30705398 514.22460938 791.2734375 C512.33227605 789.37302143 510.4415879 787.471024 508.55200195 785.56787109 C506.81826302 783.82335123 505.08166705 782.08166705 503.3425293 780.3425293 C501.64956668 778.64956668 499.96330234 776.94989677 498.28125 775.24609375 C497.3634375 774.31925781 496.445625 773.39242187 495.5 772.4375 C494.5821875 771.50808594 493.664375 770.57867188 492.71875 769.62109375 C490.08552412 767.0013379 490.08552412 767.0013379 487.35546875 764.88671875 C485.2069267 763.16574726 483.56052997 761.48701564 481.8125 759.375 C476.46110934 753.12783308 470.68995934 747.28299454 464.43359375 741.94140625 C458.09980743 736.44161926 452.30740636 730.36324311 446.41796875 724.39746094 C440.98113594 718.89654635 435.5418232 713.48313684 429.65380859 708.45800781 C427.34734214 706.42461282 425.32863824 704.19299997 423.3125 701.875 C419.00136161 696.99930777 414.5642972 692.49722776 409.6875 688.1875 C404.19951499 683.29192117 399.03647256 678.09544223 393.88549805 672.84838867 C389.99193159 668.90427535 385.99996257 665.17422805 381.76611328 661.59619141 C379.47573408 659.52617493 377.58900201 657.217649 375.63414001 654.83581543 C373.9933639 652.99254491 372.28265608 651.44965878 370.3972168 649.85986328 C365.58971044 645.70420014 361.12205188 641.24796052 356.64453125 636.7421875 C355.7798674 635.8761087 354.91520355 635.01002991 354.02433777 634.1177063 C351.28468167 631.3724961 348.54853369 628.62382003 345.8125 625.875 C343.96442555 624.02190317 342.11612039 622.1690364 340.26757812 620.31640625 C336.88113919 616.92183075 333.49600214 613.52596928 330.11254883 610.12841797 C329.3905983 609.40413605 328.66864777 608.67985413 327.92481995 607.93362427 C326.36602849 606.36770274 324.81171634 604.79732316 323.25878906 603.22558594 C320.86973812 600.87165291 318.401147 598.63540038 315.90234375 596.3984375 C306.80155547 588.14134608 298.22719323 579.33329228 289.5625 570.625 C287.8290119 568.88648354 286.09528953 567.14820064 284.36132812 565.41015625 C280.51639544 561.55538441 276.67404918 557.69805079 272.83283997 553.83956909 C271.25198653 552.25291167 269.66930177 550.66813453 268.08496094 549.08496094 C266.80467409 547.80467409 265.52912498 546.51960166 264.26171875 545.2265625 C261.38382874 542.29868432 258.4590193 539.49735992 255.33203125 536.8359375 C249.84368449 532.06186665 244.80780077 526.85571546 239.7109375 521.671875 C235.51036039 517.42799297 231.24181674 513.3518756 226.70214844 509.47119141 C222.66281954 505.97994127 219.32397857 502.15497321 216 498 C212.85707898 494.69590354 209.57486751 491.82289204 206 489 C206.01773819 489.88703357 206.01773819 489.88703357 206.03583473 490.791987 C206.8100763 529.81941646 207.18772314 568.83659105 207.29708112 607.87106788 C207.3186418 615.51163083 207.34490638 623.15217606 207.37124526 630.79272378 C207.41823715 644.46149734 207.46163735 658.13027966 207.50268555 671.79907227 C207.5420894 684.9182209 207.58360371 698.03736036 207.62768555 711.15649414 C207.63040982 711.96740945 207.63313409 712.77832477 207.63594092 713.61381327 C207.64691358 716.87832267 207.65789295 720.14283205 207.66888306 723.40734139 C207.71680842 737.65792625 207.76308257 751.90851657 207.80905947 766.15910783 C207.81635163 768.41668456 207.82367438 770.67426119 207.83100247 772.9318378 C207.94342303 807.62125728 208.03352766 842.31035381 208 877 C207.34 877 206.68 877 206 877 C204.58984375 875.56640625 204.58984375 875.56640625 202.9375 873.5625 C200.1924956 870.32362451 197.33966924 867.28971595 194.3125 864.3125 C191.30408255 861.34480563 188.59653867 858.33840686 186 855 C183.60312046 852.48020356 181.21594333 850.17275467 178.5 848 C174.38625065 844.70900052 171.34867911 841.69735822 169 837 C168.01 836.67 167.02 836.34 166 836 C166 835.34 166 834.68 166 834 C165.34 834 164.68 834 164 834 C164 833.34 164 832.68 164 832 C163.4225 831.773125 162.845 831.54625 162.25 831.3125 C159.40469122 829.65273655 158.06346666 827.57933333 156 825 C154.83970906 823.9548166 153.658847 822.93227995 152.46484375 821.92578125 C147.50914493 817.64187988 142.91875689 813.0285192 138.3125 808.375 C137.48427734 807.54226563 136.65605469 806.70953125 135.80273438 805.8515625 C134.213313 804.25323324 132.62488385 802.6539165 131.03759766 801.0534668 C129.48031687 799.48405765 127.91882548 797.91882548 126.35546875 796.35546875 C124.43931783 794.43931783 122.53070588 792.51635255 120.625 790.58984375 C119.41670629 789.3723565 118.20837228 788.15490926 117 786.9375 C116.39671875 786.32583984 115.7934375 785.71417969 115.171875 785.08398438 C111.92346563 781.8179206 108.61402539 778.86477622 105 776 C104.00614204 774.90625682 103.04355556 773.78270612 102.125 772.625 C100.08890828 770.17231663 98.02565884 768.08482504 95.5625 766.0625 C92.25011109 763.32522916 89.53798014 760.27928209 86.75390625 757.015625 C83.08577233 752.80013034 79.16289346 748.88373443 74.8125 745.375 C72.11411426 743.09636315 70.1876925 740.7522583 68 738 C67.236875 737.401875 66.47375 736.80375 65.6875 736.1875 C63.39270555 734.31964406 61.74421111 732.60064118 59.859375 730.35546875 C55.39477173 725.19285104 50.39751034 720.69274505 45.34570312 716.1171875 C44.65541016 715.48296875 43.96511719 714.84875 43.25390625 714.1953125 C42.62814697 713.62828613 42.0023877 713.06125977 41.35766602 712.47705078 C40 711 40 711 40 709 C39.443125 708.773125 38.88625 708.54625 38.3125 708.3125 C35.38490583 706.6508925 33.33385464 704.38531308 31 702 C29.5847089 700.5819591 28.16790271 699.16542954 26.75 697.75 C17.25 688.25 17.25 688.25 15 685.99609375 C13.42615922 684.42532688 11.840272 682.86662945 10.25 681.3125 C9.5075 680.549375 8.765 679.78625 8 679 C6.71225064 677.88687077 6.71225064 677.88687077 5.39848614 676.75125408 C1.2594821 671.68115271 2.31822374 664.86526323 2.3742218 658.66743469 C2.36934024 657.18054226 2.36226078 655.6936557 2.35317773 654.206783 C2.33453754 650.11837384 2.34699798 646.03055721 2.364447 641.94216454 C2.37783027 637.52409783 2.36232758 633.10612192 2.35028076 628.68806458 C2.33320434 620.99785716 2.33430059 613.30782194 2.34728432 605.61760902 C2.36611595 594.33016732 2.35500434 583.04289926 2.33680775 571.75546362 C2.30755647 553.21855633 2.2993104 534.68170268 2.30541992 516.14477539 C2.31846674 476.07376351 2.2913252 436.00278963 2.24815142 395.93180109 C2.24133836 389.54352719 2.235526 383.15525334 2.23046941 376.76697781 C2.17938777 313.06081787 1.74605071 249.37069136 0.7410954 185.67222355 C0.63872171 179.17652627 0.53818658 172.680801 0.4387207 166.18505859 C0.42801378 165.48964437 0.41730687 164.79423014 0.4062755 164.07774276 C-0.43178703 109.39209994 -0.18548202 54.69006667 0 0 Z " fill="#EDEDEC" transform="translate(212,65)"/>
<path d="M0 0 C3.34876719 1.60681341 5.68734425 3.0191955 8 6 C8.44978333 8.991745 8.44978333 8.991745 8.37817383 12.5769043 C8.37059083 13.24119949 8.36300783 13.90549469 8.35519505 14.58992004 C8.32482642 16.83542671 8.26557363 19.07928264 8.20703125 21.32421875 C8.1797162 22.95869442 8.15435394 24.59320369 8.13076782 26.22773743 C8.07556283 29.80666857 8.00801891 33.38508755 7.93136597 36.96362305 C7.8073895 42.78730747 7.71230832 48.61123507 7.62329102 54.43554688 C7.60777034 55.44600634 7.59224966 56.4564658 7.57625866 57.49754524 C7.54407624 59.59340564 7.5119624 61.6892671 7.47991371 63.78512955 C7.42878546 67.06966679 7.37506534 70.35415377 7.32084656 73.63864136 C6.88073084 100.6476566 6.68372871 127.65884493 6.48449242 154.67048216 C6.44817678 159.58886226 6.41065843 164.50723203 6.37249756 169.42559814 C6.06393251 209.28394213 5.83862517 249.14041818 6 289 C6.66 289.33 7.32 289.66 8 290 C8 290.66 8 291.32 8 292 C8.99 292.33 9.98 292.66 11 293 C12.578125 294.6015625 12.578125 294.6015625 14.25 296.625 C19.21378016 302.46474136 24.52612124 307.66514466 30.37890625 312.60546875 C33.87248204 315.61078576 36.93596318 318.90135016 39.875 322.4375 C42.53013008 325.60429577 45.4415191 328.17998804 48.6796875 330.73828125 C49.11539063 331.15464844 49.55109375 331.57101562 50 332 C50 332.66 50 333.32 50 334 C50.66 334 51.32 334 52 334 C52 334.66 52 335.32 52 336 C52.66 336 53.32 336 54 336 C54 336.66 54 337.32 54 338 C54.66 338 55.32 338 56 338 C57.33203125 339.35546875 57.33203125 339.35546875 58.8125 341.1875 C61.3946482 344.30237295 64.09937562 347.17375061 67 350 C67.77472656 350.78375 68.54945313 351.5675 69.34765625 352.375 C71.79365882 354.79578605 74.30558924 357.08674057 76.875 359.375 C82.97300206 364.89685304 88.82055085 370.67724642 94.65338135 376.47613525 C95.71853546 377.53444866 96.78539442 378.59104893 97.85394287 379.64593506 C99.37140365 381.14552191 100.88192694 382.65175983 102.390625 384.16015625 C103.27782227 385.04324463 104.16501953 385.92633301 105.07910156 386.83618164 C107 389 107 389 107 391 C107.57524414 391.25072266 108.15048828 391.50144531 108.74316406 391.75976562 C111.30441196 393.16728827 113.04057392 394.78170025 115.109375 396.84375 C116.24052734 397.97103516 116.24052734 397.97103516 117.39453125 399.12109375 C118.17183594 399.90613281 118.94914062 400.69117188 119.75 401.5 C120.93916016 402.67755859 120.93916016 402.67755859 122.15234375 403.87890625 C122.90128906 404.63042969 123.65023437 405.38195312 124.421875 406.15625 C125.10862305 406.84525391 125.79537109 407.53425781 126.50292969 408.24414062 C128 410 128 410 128 412 C128.5458374 412.21914063 129.0916748 412.43828125 129.65405273 412.6640625 C132.76337569 414.4347166 135.0609428 416.83349817 137.53515625 419.375 C138.05508652 419.90013184 138.57501678 420.42526367 139.11070251 420.96630859 C140.76614218 422.63950892 142.41472431 424.31925435 144.0625 426 C145.7147001 427.67986104 147.36835341 429.35822399 149.02500916 431.03369141 C150.05398384 432.07487621 151.08027353 433.11872311 152.10353088 434.16552734 C154.31488945 436.40778751 156.36627497 438.24418331 159 440 C159 440.66 159 441.32 159 442 C159.58910156 442.25136719 160.17820312 442.50273437 160.78515625 442.76171875 C163.27644202 444.15455401 164.62300414 445.6208572 166.4375 447.8125 C171.50182291 453.88733746 177.29326502 459.17289628 183.0625 464.5625 C188.44526854 469.61637655 193.8091532 474.68633963 199.0625 479.875 C199.5685376 480.36814697 200.0745752 480.86129395 200.59594727 481.36938477 C201.77066521 482.54076959 202.89163964 483.76564106 204 485 C204 485.66 204 486.32 204 487 C204.99 487.33 205.98 487.66 207 488 C206.99951424 488.60366693 206.99902848 489.20733386 206.998528 489.82929373 C206.96848305 529.21156175 207.04376544 568.59263801 207.19354334 607.97460565 C207.22252487 615.61188881 207.2500488 623.24917707 207.27750319 630.88646585 C207.32663893 644.5491507 207.37660093 658.21183238 207.42724609 671.87451172 C207.43023671 672.68136518 207.43322732 673.48821864 207.43630856 674.3195222 C207.4484245 677.58792679 207.46054302 680.85633136 207.47266474 684.12473592 C207.50614538 693.15363211 207.53948816 702.1825288 207.57275391 711.21142578 C207.5757409 712.02207837 207.5787279 712.83273096 207.58180541 713.66794878 C207.63208868 727.32060853 207.68172355 740.97327058 207.73096704 754.62593412 C207.75838 762.21760988 207.78613945 769.80928406 207.81480408 777.4009552 C207.94009277 810.60070519 208.03822538 843.79995765 208 877 C207.34 877 206.68 877 206 877 C204.58984375 875.56640625 204.58984375 875.56640625 202.9375 873.5625 C200.1924956 870.32362451 197.33966924 867.28971595 194.3125 864.3125 C191.30408255 861.34480563 188.59653867 858.33840686 186 855 C183.60312046 852.48020356 181.21594333 850.17275467 178.5 848 C174.38625065 844.70900052 171.34867911 841.69735822 169 837 C168.01 836.67 167.02 836.34 166 836 C166 835.34 166 834.68 166 834 C165.34 834 164.68 834 164 834 C164 833.34 164 832.68 164 832 C163.4225 831.773125 162.845 831.54625 162.25 831.3125 C159.40469122 829.65273655 158.06346666 827.57933333 156 825 C154.83970906 823.9548166 153.658847 822.93227995 152.46484375 821.92578125 C147.50914493 817.64187988 142.91875689 813.0285192 138.3125 808.375 C137.48427734 807.54226563 136.65605469 806.70953125 135.80273438 805.8515625 C134.213313 804.25323324 132.62488385 802.6539165 131.03759766 801.0534668 C129.48031687 799.48405765 127.91882548 797.91882548 126.35546875 796.35546875 C124.43931783 794.43931783 122.53070588 792.51635255 120.625 790.58984375 C119.41670629 789.3723565 118.20837228 788.15490926 117 786.9375 C116.39671875 786.32583984 115.7934375 785.71417969 115.171875 785.08398438 C111.92346563 781.8179206 108.61402539 778.86477622 105 776 C104.00614204 774.90625682 103.04355556 773.78270612 102.125 772.625 C100.08890828 770.17231663 98.02565884 768.08482504 95.5625 766.0625 C92.25011109 763.32522916 89.53798014 760.27928209 86.75390625 757.015625 C83.08577233 752.80013034 79.16289346 748.88373443 74.8125 745.375 C72.11411426 743.09636315 70.1876925 740.7522583 68 738 C67.236875 737.401875 66.47375 736.80375 65.6875 736.1875 C63.39270555 734.31964406 61.74421111 732.60064118 59.859375 730.35546875 C55.39477173 725.19285104 50.39751034 720.69274505 45.34570312 716.1171875 C44.65541016 715.48296875 43.96511719 714.84875 43.25390625 714.1953125 C42.62814697 713.62828613 42.0023877 713.06125977 41.35766602 712.47705078 C40 711 40 711 40 709 C39.443125 708.773125 38.88625 708.54625 38.3125 708.3125 C35.38490583 706.6508925 33.33385464 704.38531308 31 702 C29.5847089 700.5819591 28.16790271 699.16542954 26.75 697.75 C17.25 688.25 17.25 688.25 15 685.99609375 C13.42615922 684.42532688 11.840272 682.86662945 10.25 681.3125 C9.5075 680.549375 8.765 679.78625 8 679 C6.71225064 677.88687077 6.71225064 677.88687077 5.39848614 676.75125408 C1.2594821 671.68115271 2.31822374 664.86526323 2.3742218 658.66743469 C2.36934024 657.18054226 2.36226078 655.6936557 2.35317773 654.206783 C2.33453754 650.11837384 2.34699798 646.03055721 2.364447 641.94216454 C2.37783027 637.52409783 2.36232758 633.10612192 2.35028076 628.68806458 C2.33320434 620.99785716 2.33430059 613.30782194 2.34728432 605.61760902 C2.36611595 594.33016732 2.35500434 583.04289926 2.33680775 571.75546362 C2.30755647 553.21855633 2.2993104 534.68170268 2.30541992 516.14477539 C2.31846674 476.07376351 2.2913252 436.00278963 2.24815142 395.93180109 C2.24133836 389.54352719 2.235526 383.15525334 2.23046941 376.76697781 C2.17938777 313.06081787 1.74605071 249.37069136 0.7410954 185.67222355 C0.63872171 179.17652627 0.53818658 172.680801 0.4387207 166.18505859 C0.42801378 165.48964437 0.41730687 164.79423014 0.4062755 164.07774276 C-0.43178703 109.39209994 -0.18548202 54.69006667 0 0 Z " fill="#BEBEBE" transform="translate(212,65)"/>
<path d="M0 0 C7.36321165 6.23350059 7.36321165 6.23350059 10.63696289 9.53930664 C11.25773209 10.16337906 11.87850128 10.78745148 12.51808167 11.43043518 C13.16309128 12.08374313 13.80810089 12.73705109 14.47265625 13.41015625 C15.15879501 14.10008163 15.84493378 14.79000702 16.55186462 15.50083923 C18.72453989 17.68562947 20.89392637 19.87363901 23.0625 22.0625 C25.92544237 24.95216019 28.79176144 27.83840942 31.66015625 30.72265625 C32.30719009 31.37798843 32.95422394 32.03332062 33.62086487 32.70851135 C36.37438639 35.47675963 39.12462203 38.16667607 42.14624023 40.64233398 C44.95292164 42.96110568 47.45757415 45.39603283 50 48 C51.14056073 49.1432918 52.28261058 50.28509911 53.42578125 51.42578125 C82 80 82 80 84.07720947 82.31822205 C88.07584946 85.98713519 92.55765906 88.53644537 97.19042969 91.33422852 C112.19968521 100.69941351 126.1923868 111.20625111 139.75 122.5625 C140.37039831 123.08074121 140.99079661 123.59898241 141.62999487 124.13292789 C174.74543063 151.98636232 193.75587127 182.08742542 197.79850197 225.70257473 C200.23365696 255.53821151 199.92355864 285.48064327 199.0625 315.375 C199.04331127 316.05749968 199.02412254 316.73999937 199.00435233 317.44318086 C198.12746361 348.60930563 196.52708933 379.70772705 194.3401438 410.8105191 C192.62715206 435.53955538 192.64203941 460.22464209 193 485 C191.2925002 483.71937515 189.62626404 482.38232443 188 481 C188 480.34 188 479.68 188 479 C187.34 479 186.68 479 186 479 C184.44921875 477.42578125 184.44921875 477.42578125 182.6875 475.3125 C179.08683071 471.08692116 175.46256225 467.17640877 171.125 463.6875 C166.5503695 459.94355688 162.9201774 455.29533811 159.140625 450.77734375 C158.53734375 450.06707031 157.9340625 449.35679687 157.3125 448.625 C156.77238281 447.97789062 156.23226562 447.33078125 155.67578125 446.6640625 C153.88724417 444.88803267 152.26243344 444.07049535 150 443 C147.25 440.5 147.25 440.5 145 438 C145 437.34 145 436.68 145 436 C144.42113037 435.74710205 143.84226074 435.4942041 143.24584961 435.23364258 C140.73384376 433.85380069 139.07521574 432.30243359 137.06640625 430.26171875 C135.9690918 429.15473633 135.9690918 429.15473633 134.84960938 428.02539062 C134.09486328 427.25388672 133.34011719 426.48238281 132.5625 425.6875 C131.43618164 424.54764648 131.43618164 424.54764648 130.28710938 423.38476562 C128.82640317 421.90607359 127.36760633 420.42549256 125.91088867 418.94287109 C123.62102326 416.61468035 121.31093472 414.30726657 119 412 C117.74054466 410.72950437 116.48146644 409.45863485 115.22265625 408.1875 C113.83598943 406.79161507 112.44926953 405.39578289 111.0625 404 C110.02706055 402.95199219 110.02706055 402.95199219 108.97070312 401.8828125 C106.00655784 398.90461913 103.06177312 395.97580003 99.80859375 393.3125 C97.01344948 391.01107384 94.54432516 388.57538136 92 386 C90.99670281 384.9906853 89.99302306 383.98175077 88.98901367 382.97314453 C88.45463181 382.43553497 87.92024994 381.89792542 87.36967468 381.34402466 C84.94812452 378.90894701 82.52378845 376.47665038 80.09936523 374.04443359 C78.82925338 372.76929384 77.56004061 371.49325789 76.29174805 370.21630859 C67.19590782 360.96786454 67.19590782 360.96786454 57.4465332 352.42529297 C56 351 56 351 55.04760742 348.94580078 C54.17019491 346.86402877 54.17019491 346.86402877 52.17596436 346.1056366 C49.67509211 344.83490996 48.11213646 343.35266006 46.13696289 341.36401367 C45.3926149 340.61951462 44.64826691 339.87501556 43.88136292 339.10795593 C43.08648972 338.30276016 42.29161652 337.49756439 41.47265625 336.66796875 C40.23375893 335.42482658 40.23375893 335.42482658 38.96983337 334.15657043 C36.32932467 331.50487096 33.69584071 328.84631612 31.0625 326.1875 C29.2927787 324.40774461 27.52260156 322.62844237 25.75195312 320.84960938 C22.49594041 317.57726674 19.24255531 314.30236153 15.99243164 311.02416992 C15.29240021 310.31948578 14.59236877 309.61480164 13.87112427 308.88876343 C12.35168765 307.35500303 10.84132627 305.81225598 9.33374023 304.2668457 C7.05220813 301.84958188 7.05220813 301.84958188 3.89572144 300.29788208 C1.49746866 298.27983248 1.02949859 297.1617198 0.45852375 294.0314703 C0.26500767 289.99778106 0.26912072 286.00310586 0.3347168 281.96704102 C0.33804784 280.41268752 0.33871765 278.85832638 0.33692932 277.30397034 C0.33947912 273.08401194 0.37889878 268.86509922 0.42456794 264.64541745 C0.46588099 260.21842791 0.47226736 255.79139393 0.48213196 251.36424255 C0.50595493 242.96601994 0.55948786 234.56827069 0.62442762 226.17027563 C0.71812442 213.88729097 0.76805485 201.60411489 0.81721973 189.32088375 C0.8245702 187.49964327 0.83193342 185.67840285 0.83930969 183.85716248 C0.84285943 182.96682168 0.84640917 182.07648089 0.85006648 181.15916008 C0.87202634 175.90187735 0.90262522 170.64473604 0.9412092 165.38754952 C0.9648149 162.09713929 0.98436534 158.80671137 1.0033474 155.51627159 C1.01310157 154.00471767 1.02471399 152.49317424 1.03845596 150.98165131 C1.11289694 142.72768638 0.88897244 134.57421984 0.2296133 126.34295177 C-0.1418562 120.93470832 -0.13123946 115.53842314 -0.11352539 110.11962891 C-0.11367142 108.91789536 -0.11381744 107.7161618 -0.1139679 106.47801208 C-0.1133972 103.23305891 -0.10843807 99.98815084 -0.10139394 96.7432065 C-0.09507397 93.33331282 -0.09454985 89.92341792 -0.09336853 86.51351929 C-0.09028039 80.07889598 -0.0821015 73.64428998 -0.07201904 67.20967424 C-0.06077901 59.87454597 -0.05532772 52.5394168 -0.05032361 45.20428205 C-0.03991632 30.13617844 -0.02236646 15.06809097 0 0 Z " fill="#9B9B9A" transform="translate(635,187)"/>
<path d="M0 0 C3.34876719 1.60681341 5.68734425 3.0191955 8 6 C8.44978333 8.991745 8.44978333 8.991745 8.37817383 12.5769043 C8.37059083 13.24120233 8.36300783 13.90550035 8.35519505 14.58992863 C8.32482655 16.83543245 8.26557398 19.0792855 8.20703125 21.32421875 C8.17971625 22.95864865 8.15435399 24.59311214 8.13076782 26.2276001 C8.07556224 29.80648544 8.0080177 33.38485866 7.93136597 36.96334839 C7.80737513 42.78785664 7.71230336 48.61260824 7.62329102 54.43774414 C7.60777034 55.44837134 7.59224966 56.45899855 7.57625866 57.50025082 C7.54407658 59.59639383 7.51196273 61.69253789 7.47991371 63.78868294 C7.42878597 67.07354635 7.37506655 70.35835949 7.32084656 73.64317322 C6.88108109 100.6310351 6.68537991 127.62097241 6.48524398 154.61143517 C6.44858405 159.52771633 6.40966451 164.44397599 6.36947632 169.36022949 C6.04832721 208.10146353 6.04832721 208.10146353 6.04296875 246.84375 C6.04870228 248.47791028 6.05441476 250.11207064 6.06010437 251.74623108 C6.0927472 260.38667949 6.0927472 260.38667949 6.16891479 269.02682495 C6.20963956 272.65201139 6.23483629 276.27701077 6.2578125 279.90234375 C6.27647873 280.92569824 6.29514496 281.94905273 6.31437683 283.00341797 C6.3177858 283.91357666 6.32119476 284.82373535 6.32470703 285.76147461 C6.33438507 286.54042587 6.34406311 287.31937714 6.35403442 288.12193298 C6.23720306 288.7416951 6.1203717 289.36145721 6 290 C5.01 290.66 4.02 291.32 3 292 C2.18732027 288.41735949 1.85630408 285.07315225 1.80381775 281.40257263 C1.78561415 280.2825501 1.76741055 279.16252756 1.74865532 278.00856495 C1.73354975 276.78427123 1.71844418 275.55997751 1.70288086 274.29858398 C1.68323336 272.99552905 1.66358585 271.69247412 1.64334297 270.34993267 C1.58931004 266.74320954 1.54136994 263.1364285 1.49477315 259.52960253 C1.45439834 256.44914541 1.41096562 253.36873407 1.36764497 250.2883172 C1.23851485 241.08591549 1.11965729 231.88339773 1.00380707 222.68082047 C0.94893742 218.32480263 0.89253262 213.96880629 0.83565688 209.61281425 C0.16931164 158.51202332 -0.182092 107.41763673 -0.125 56.3125 C-0.12419261 55.5895202 -0.12338521 54.8665404 -0.12255335 54.12165213 C-0.10164813 36.08104855 -0.06118462 18.0405137 0 0 Z " fill="#9F9C9E" transform="translate(212,65)"/>
<path d="M0 0 C0.33 0 0.66 0 1 0 C1 39.33333333 1 78.66666667 1 118 C0.01 118.495 0.01 118.495 -1 119 C-1.02338874 104.51791244 -1.04094197 90.03582783 -1.05181217 75.55372524 C-1.05696244 68.82902329 -1.06398092 62.10433308 -1.07543945 55.37963867 C-1.08630926 48.88926633 -1.09228554 42.3989062 -1.09487724 35.90852547 C-1.0967241 33.43303294 -1.10033052 30.95754108 -1.10573006 28.48205376 C-1.11299475 25.01333042 -1.11398864 21.54465746 -1.11352539 18.07592773 C-1.11712067 17.05381195 -1.12071594 16.03169617 -1.12442017 14.97860718 C-1.11705007 9.87453067 -0.88298386 5.02977982 0 0 Z " fill="#949092" transform="translate(216,238)"/>
<path d="M0 0 C0.33 0 0.66 0 1 0 C1.1676046 4.27079707 1.33392359 8.54164325 1.5 12.8125 C1.54769531 14.02744141 1.59539062 15.24238281 1.64453125 16.49414062 C1.68964844 17.65751953 1.73476562 18.82089844 1.78125 20.01953125 C1.82314453 21.09307861 1.86503906 22.16662598 1.90820312 23.27270508 C1.97243254 25.18096796 2 27.09065649 2 29 C1.34 29.33 0.68 29.66 0 30 C0 20.1 0 10.2 0 0 Z " fill="#9F9FA1" transform="translate(215,327)"/>
</svg>
